<svg data-name="Layer 1" viewBox="0 0 64 64" xmlns="http://www.w3.org/2000/svg"><defs><linearGradient gradientTransform="matrix(-1 0 0 1 65.97 0)" gradientUnits="userSpaceOnUse" id="a" x1="46.72" x2="25.63" y1="58.39" y2="31.08"><stop offset="0" stop-color="#f2f2f2" class="stop-color-f2f2f2"></stop><stop offset="1" stop-color="#cfcfcf" class="stop-color-cfcfcf"></stop></linearGradient><linearGradient gradientTransform="matrix(0 -1 -1 0 168.93 51.25)" gradientUnits="userSpaceOnUse" id="b" x1="4.06" x2="15.68" y1="116.66" y2="134.3"><stop offset=".02" stop-color="#ffffff" class="stop-color-ffffff"></stop><stop offset="1" stop-color="#ffffff" stop-opacity="0" class="stop-color-ffffff"></stop></linearGradient></defs><path d="M50 26.71A13.88 13.88 0 0 1 37.86 8.77a.6.6 0 0 0-.86-.69A13.88 13.88 0 1 0 55.92 27a.6.6 0 0 0-.69-.89 13.91 13.91 0 0 1-5.23.6Z" fill="#dbdbdb" class="fill-efcc00"></path><path d="M23.66 21.9a17.49 17.49 0 0 1 15.47 9.32A13.75 13.75 0 1 1 46 56.84l-22.39.06a17.5 17.5 0 0 1 0-35Z" fill="url(#a)" class="fillurl(-a)"></path><circle cx="46.05" cy="43.09" r="13.75" transform="rotate(-74.39 46.053 43.09)" fill="url(#b)" class="fillurl(-b)"></circle></svg>