<svg data-name="Layer 1" viewBox="0 0 64 64" xmlns="http://www.w3.org/2000/svg"><defs><linearGradient gradientTransform="matrix(-1 0 0 1 -378.03 0)" gradientUnits="userSpaceOnUse" id="a" x1="-397.28" x2="-418.37" y1="52.39" y2="25.08"><stop offset="0" stop-color="#f2f2f2" class="stop-color-f2f2f2"></stop><stop offset="1" stop-color="#cfcfcf" class="stop-color-cfcfcf"></stop></linearGradient><linearGradient gradientTransform="matrix(0 -1 -1 0 103.42 -388.95)" gradientUnits="userSpaceOnUse" id="b" x1="-430.14" x2="-418.52" y1="51.15" y2="68.8"><stop offset=".02" stop-color="#f0eded" class="stop-color-ffffff"></stop><stop offset="1" stop-color="#f0eded" stop-opacity="0" class="stop-color-ffffff"></stop></linearGradient></defs><path d="M50 20.71A13.88 13.88 0 0 1 37.86 2.77a.6.6 0 0 0-.86-.69A13.88 13.88 0 1 0 55.92 21a.6.6 0 0 0-.69-.89 13.91 13.91 0 0 1-5.23.6Z" fill="#d6d6d6" class="fill-efcc00"></path><path d="M23.66 15.9a17.49 17.49 0 0 1 15.47 9.32A13.75 13.75 0 1 1 46 50.84l-22.39.06a17.5 17.5 0 0 1 0-35Z" fill="url(#a)" class="fillurl(-a)"></path><circle cx="46.05" cy="37.09" r="13.75" transform="rotate(-74.39 46.051 37.087)" fill="url(#b)" class="fillurl(-b)"></circle><path d="M32.5 55.5v1M26.5 53.5v1M38.5 53.5v1M38.5 59.5v1M26.5 59.5v1M32.5 61.5v1" fill="none" stroke="#0baeff" stroke-linecap="round" stroke-miterlimit="10" stroke-width="3px" class="stroke-0baeff"></path></svg>