<svg data-name="Layer 1" viewBox="0 0 64 64" xmlns="http://www.w3.org/2000/svg"><path d="M44.54 41.47a23 23 0 0 1-20.05-29.74A1 1 0 0 0 23 10.59 23 23 0 1 0 54.41 42a1 1 0 0 0-1.14-1.47 23.06 23.06 0 0 1-8.73.94Z" fill="#f2f2f2" class="fill-efcc00"></path><path d="M51.25 46.24h-11a20.18 20.18 0 0 1-16-9.75h-12a23 23 0 0 0 39 9.74Z" fill="#e0e0e0" class="fill-e0e0e0"></path><path d="M25.5 36.5H10.83M9.54 41.5h9.68M7.85 46.5h46.01" stroke="#b9c1c6" fill="none" stroke-linecap="round" stroke-miterlimit="10" stroke-width="3px" class="stroke-b9c1c6"></path><path d="M34.49 51.5h21.16" stroke="#a5a9aa" fill="none" stroke-linecap="round" stroke-miterlimit="10" stroke-width="3px" class="stroke-a5a9aa"></path><path d="M11.85 51.5H27.3" stroke="#b9c1c6" fill="none" stroke-linecap="round" stroke-miterlimit="10" stroke-width="3px" class="stroke-b9c1c6"></path><path d="M26.4 56.5h19.35M15.64 56.5h4.48" stroke="#a5a9aa" fill="none" stroke-linecap="round" stroke-miterlimit="10" stroke-width="3px" class="stroke-a5a9aa"></path><path d="M24.61 41.5h6.28" stroke="#b9c1c6" fill="none" stroke-linecap="round" stroke-miterlimit="10" stroke-width="3px" class="stroke-b9c1c6"></path></svg>