<svg data-name="Layer 1" viewBox="0 0 64 64" xmlns="http://www.w3.org/2000/svg"><defs><linearGradient gradientTransform="matrix(-1 0 0 1 -674.2 0)" gradientUnits="userSpaceOnUse" id="a" x1="-693.28" x2="-714.37" y1="52.39" y2="25.08"><stop offset="0" stop-color="#cfcfcf" class="stop-color-f2f2f2"></stop><stop offset="1" stop-color="#b8b4b4" class="stop-color-cfcfcf"></stop></linearGradient><linearGradient gradientTransform="matrix(0 -1 -1 0 .99 -691.22)" gradientUnits="userSpaceOnUse" id="b" x1="-732.41" x2="-720.79" y1="-51.12" y2="-33.47"><stop offset=".02" stop-color="#858383" class="stop-color-ffffff"></stop><stop offset="1" stop-color="#858383" stop-opacity="0" class="stop-color-ffffff"></stop></linearGradient></defs><circle cx="39.8" cy="22" r="12.59" fill="#efcc00" class="fill-efcc00"></circle><path d="M39.8 2v4.44M39.8 37.56V42M19.8 22h4.45M55.36 22h4.44M25.66 7.86 28.8 11M50.8 33l3.14 3.14M25.66 36.14 28.8 33M50.8 11l3.14-3.14" stroke="#efcc00" fill="none" stroke-linecap="round" stroke-miterlimit="10" stroke-width="3px" class="stroke-efcc00"></path><path d="M23.5 15.9A17.49 17.49 0 0 1 39 25.22a13.75 13.75 0 1 1 6.92 25.62l-22.42.06a17.5 17.5 0 0 1 0-35Z" fill="url(#a)" class="fillurl(-a)"></path><circle cx="45.89" cy="37.09" r="13.75" transform="rotate(-74.39 45.886 37.086)" fill="url(#b)" class="fillurl(-b)"></circle><path d="M32.5 55.5v7M26.5 53.5v7M38.5 53.5v7" stroke="#0baeff" fill="none" stroke-linecap="round" stroke-miterlimit="10" stroke-width="3px" class="stroke-0baeff"></path></svg>