<svg data-name="Layer 1" viewBox="0 0 64 64" xmlns="http://www.w3.org/2000/svg"><defs><linearGradient gradientTransform="matrix(-1 0 0 1 65.8 0)" gradientUnits="userSpaceOnUse" id="a" x1="46.72" x2="25.63" y1="58.39" y2="31.08"><stop offset="0" stop-color="#adadad" class="stop-color-f2f2f2"></stop><stop offset="1" stop-color="#cfcfcf" class="stop-color-cfcfcf"></stop></linearGradient><linearGradient gradientTransform="matrix(0 -1 -1 0 109.04 59.43)" gradientUnits="userSpaceOnUse" id="b" x1="12.25" x2="23.86" y1="56.93" y2="74.58"><stop offset=".02" stop-color="#666464" class="stop-color-ffffff"></stop><stop offset="1" stop-color="#666464" stop-opacity="0" class="stop-color-ffffff"></stop></linearGradient></defs><circle cx="39.8" cy="28" r="12.59" fill="#efcc00" class="fill-efcc00"></circle><path d="M39.8 8v4.44M39.8 43.56V48M19.8 28h4.45M55.36 28h4.44M25.66 13.86 28.8 17M50.8 39l3.14 3.14M25.66 42.14 28.8 39M50.8 17l3.14-3.14" fill="none" stroke="#efcc00" stroke-linecap="round" stroke-miterlimit="10" stroke-width="3px" class="stroke-efcc00"></path><path d="M23.5 21.9A17.49 17.49 0 0 1 39 31.22a13.75 13.75 0 1 1 6.92 25.62l-22.42.06a17.5 17.5 0 0 1 0-35Z" fill="url(#a)" class="fillurl(-a)"></path><circle cx="45.89" cy="43.09" r="13.75" transform="rotate(-74.39 45.888 43.09)" fill="url(#b)" class="fillurl(-b)"></circle></svg>